<svg width="56" height="56" viewBox="0 0 56 56" fill="none" xmlns="http://www.w3.org/2000/svg">
<path d="M31.1111 0H24.8889V31.1111H31.1111V0ZM46.1378 6.75111L41.72 11.1689C46.6356 15.12 49.7778 21.1867 49.7778 28C49.7778 40.04 40.04 49.7778 28 49.7778C15.96 49.7778 6.22222 40.04 6.22222 28C6.22222 21.1867 9.36444 15.12 14.2489 11.1378L9.86222 6.75111C3.82667 11.8844 0 19.4756 0 28C0 43.4622 12.5378 56 28 56C43.4622 56 56 43.4622 56 28C56 19.4756 52.1733 11.8844 46.1378 6.75111Z" fill="#1DFF5C"/>
</svg>
